<svg viewBox="0 0 800 800" xmlns="http://www.w3.org/2000/svg">
  <!-- Background -->
  <rect width="800" height="800" fill="#f8f9fa" rx="10" ry="10"/>
  
  <!-- Title -->
  <text x="400" y="40" font-family="Arial" font-size="24" text-anchor="middle" font-weight="bold" fill="#333">Deployment Flow: Option A (ETH Oracle)</text>
  
  <!-- Timeline -->
  <line x1="100" y1="90" x2="100" y2="760" stroke="#ccc" stroke-width="4"/>
  
  <!-- Step 1 -->
  <circle cx="100" cy="120" r="12" fill="#6bb5ff"/>
  <text x="100" y="120" font-family="Arial" font-size="14" text-anchor="middle" fill="#fff" font-weight="bold">1</text>
  <rect x="120" y="100" width="640" height="40" rx="5" ry="5" fill="#6bb5ff" fill-opacity="0.2"/>
  <text x="140" y="125" font-family="Arial" font-size="14" fill="#333" font-weight="bold">Deploy USDT Contract</text>
  <text x="400" y="125" font-family="Arial" font-size="14" fill="#333">Mint 200,000 USDT tokens (200,000 * 10^18 wei)</text>
  
  <!-- Step 2 -->
  <circle cx="100" cy="170" r="12" fill="#6bb5ff"/>
  <text x="100" y="170" font-family="Arial" font-size="14" text-anchor="middle" fill="#fff" font-weight="bold">2</text>
  <rect x="120" y="150" width="640" height="40" rx="5" ry="5" fill="#6bb5ff" fill-opacity="0.2"/>
  <text x="140" y="175" font-family="Arial" font-size="14" fill="#333" font-weight="bold">Deploy WETH Contract</text>
  
  <!-- Step 3 -->
  <circle cx="100" cy="240" r="12" fill="#ff9e6b"/>
  <text x="100" y="240" font-family="Arial" font-size="14" text-anchor="middle" fill="#fff" font-weight="bold">3</text>
  <rect x="120" y="200" width="640" height="80" rx="5" ry="5" fill="#ff9e6b" fill-opacity="0.2"/>
  <text x="140" y="225" font-family="Arial" font-size="14" fill="#333" font-weight="bold">Deploy Reserves Contract</text>
  <text x="140" y="250" font-family="Arial" font-size="14" fill="#333">• Approve Reserves to spend USDT</text>
  <text x="140" y="270" font-family="Arial" font-size="14" fill="#333">• addReserve(USDT.address, WETH.address) - ID 0 for USDT, ID 1 for WETH</text>
  
  <!-- Step 4 -->
  <circle cx="100" cy="320" r="12" fill="#c39cff"/>
  <text x="100" y="320" font-family="Arial" font-size="14" text-anchor="middle" fill="#fff" font-weight="bold">4</text>
  <rect x="120" y="300" width="640" height="40" rx="5" ry="5" fill="#c39cff" fill-opacity="0.2"/>
  <text x="140" y="325" font-family="Arial" font-size="14" fill="#333" font-weight="bold">Deploy PriceOracle Contract</text>
  <text x="450" y="325" font-family="Arial" font-size="14" fill="#333">setDataFeedAddress(ETH/USD_chainlink_address)</text>
  
  <!-- Step 5 -->
  <circle cx="100" cy="390" r="12" fill="#78dbbe"/>
  <text x="100" y="390" font-family="Arial" font-size="14" text-anchor="middle" fill="#fff" font-weight="bold">5</text>
  <rect x="120" y="360" width="640" height="60" rx="5" ry="5" fill="#78dbbe" fill-opacity="0.2"/>
  <text x="140" y="385" font-family="Arial" font-size="14" fill="#333" font-weight="bold">Deploy Governance Contract</text>
  <text x="140" y="405" font-family="Arial" font-size="14" fill="#333">• addCollateralToken(USDT.address), addCollateralToken(WETH.address)</text>
  <text x="140" y="425" font-family="Arial" font-size="14" fill="#333">• setReserveContract(Reserves.address)</text>
  
  <!-- Step 6 -->
  <circle cx="100" cy="460" r="12" fill="#ff9e6b"/>
  <text x="100" y="460" font-family="Arial" font-size="14" text-anchor="middle" fill="#fff" font-weight="bold">6</text>
  <rect x="120" y="440" width="640" height="40" rx="5" ry="5" fill="#ff9e6b" fill-opacity="0.2"/>
  <text x="140" y="465" font-family="Arial" font-size="14" fill="#333" font-weight="bold">Fetch Collateral Price</text>
  <text x="400" y="465" font-family="Arial" font-size="14" fill="#333">Calculate required ETH: 800,000 / real-time ETH price</text>
  
  <!-- Step 7 -->
  <circle cx="100" cy="510" r="12" fill="#6bb5ff"/>
  <text x="100" y="510" font-family="Arial" font-size="14" text-anchor="middle" fill="#fff" font-weight="bold">7</text>
  <rect x="120" y="490" width="640" height="40" rx="5" ry="5" fill="#6bb5ff" fill-opacity="0.2"/>
  <text x="140" y="515" font-family="Arial" font-size="14" fill="#333" font-weight="bold">Mint WETH Tokens</text>
  <text x="400" y="515" font-family="Arial" font-size="14" fill="#333">Approve Reserves to spend WETH</text>
  
  <!-- Step 8 -->
  <circle cx="100" cy="560" r="12" fill="#ff9e6b"/>
  <text x="100" y="560" font-family="Arial" font-size="14" text-anchor="middle" fill="#fff" font-weight="bold">8</text>
  <rect x="120" y="540" width="640" height="40" rx="5" ry="5" fill="#ff9e6b" fill-opacity="0.2"/>
  <text x="140" y="565" font-family="Arial" font-size="14" fill="#333" font-weight="bold">Deposit WETH to Reserves</text>
  <text x="400" y="565" font-family="Arial" font-size="14" fill="#333">deposit(pid=1, WETH_amount)</text>
  
  <!-- Step 9 -->
  <circle cx="100" cy="610" r="12" fill="#ffce73"/>
  <text x="100" y="610" font-family="Arial" font-size="14" text-anchor="middle" fill="#fff" font-weight="bold">9</text>
  <rect x="120" y="590" width="640" height="40" rx="5" ry="5" fill="#ffce73" fill-opacity="0.2"/>
  <text x="140" y="615" font-family="Arial" font-size="14" fill="#333" font-weight="bold">Configure ETHIXUSD Permissions</text>
  <text x="450" y="615" font-family="Arial" font-size="14" fill="#333">grantRole(MANAGER_ROLE, Governance.address)</text>
  
  <!-- Step 10 -->
  <circle cx="100" cy="670" r="12" fill="#ffce73"/>
  <text x="100" y="670" font-family="Arial" font-size="14" text-anchor="middle" fill="#fff" font-weight="bold">10</text>
  <rect x="120" y="650" width="640" height="40" rx="5" ry="5" fill="#ffce73" fill-opacity="0.2"/>
  <text x="140" y="675" font-family="Arial" font-size="14" fill="#333" font-weight="bold">Mint and Configure ETHIXUSD</text>
  <text x="450" y="675" font-family="Arial" font-size="14" fill="#333">Mint 1,000,000 ETHIXUSD tokens, transfer 500,000 to Governance</text>
  
  <!-- Step 11 -->
  <circle cx="100" cy="730" r="12" fill="#78dbbe"/>
  <text x="100" y="730" font-family="Arial" font-size="14" text-anchor="middle" fill="#fff" font-weight="bold">11</text>
  <rect x="120" y="710" width="640" height="40" rx="5" ry="5" fill="#78dbbe" fill-opacity="0.2"/>
  <text x="140" y="735" font-family="Arial" font-size="14" fill="#333" font-weight="bold">Test Peg Mechanism</text>
  <text x="450" y="735" font-family="Arial" font-size="14" fill="#333">validatePeg() after simulating price changes</text>
  
  <!-- Legend -->
  <rect x="580" y="40" width="20" height="10" fill="#6bb5ff"/>
  <text x="605" y="50" font-family="Arial" font-size="12" fill="#333">Token Contract</text>
  
  <rect x="580" y="60" width="20" height="10" fill="#ff9e6b"/>
  <text x="605" y="70" font-family="Arial" font-size="12" fill="#333">Reserves Operations</text>
  
  <rect x="650" y="40" width="20" height="10" fill="#c39cff"/>
  <text x="675" y="50" font-family="Arial" font-size="12" fill="#333">Oracle Contract</text>
  
  <rect x="650" y="60" width="20" height="10" fill="#78dbbe"/>
  <text x="675" y="70" font-family="Arial" font-size="12" fill="#333">Governance Operations</text>
  
  <rect x="720" y="40" width="20" height="10" fill="#ffce73"/>
  <text x="745" y="50" font-family="Arial" font-size="12" fill="#333">Stablecoin Operations</text>
</svg>