<svg viewBox="0 0 800 700" xmlns="http://www.w3.org/2000/svg">
  <!-- Background -->
  <rect width="800" height="700" fill="#f8f9fa" rx="10" ry="10"/>
  
  <!-- Title -->
  <text x="400" y="40" font-family="Arial" font-size="24" text-anchor="middle" font-weight="bold" fill="#333">Deployment Flow: Option B (Custom Collateral)</text>
  
  <!-- Timeline -->
  <line x1="100" y1="90" x2="100" y2="670" stroke="#ccc" stroke-width="4"/>
  
  <!-- Step 1 -->
  <circle cx="100" cy="120" r="12" fill="#6bb5ff"/>
  <text x="100" y="120" font-family="Arial" font-size="14" text-anchor="middle" fill="#fff" font-weight="bold">1</text>
  <rect x="120" y="100" width="640" height="40" rx="5" ry="5" fill="#6bb5ff" fill-opacity="0.2"/>
  <text x="140" y="125" font-family="Arial" font-size="14" fill="#333" font-weight="bold">Deploy USDT Contract</text>
  <text x="400" y="125" font-family="Arial" font-size="14" fill="#333">Mint 200,000 USDT tokens (200,000 * 10^18 wei)</text>
  
  <!-- Step 2 -->
  <circle cx="100" cy="170" r="12" fill="#6bb5ff"/>
  <text x="100" y="170" font-family="Arial" font-size="14" text-anchor="middle" fill="#fff" font-weight="bold">2</text>
  <rect x="120" y="150" width="640" height="40" rx="5" ry="5" fill="#6bb5ff" fill-opacity="0.2"/>
  <text x="140" y="175" font-family="Arial" font-size="14" fill="#333" font-weight="bold">Deploy N2DR Token</text>
  <text x="400" y="175" font-family="Arial" font-size="14" fill="#333">Mint 1 Billion N2DR tokens (10^27 wei)</text>
  
  <!-- Step 3 -->
  <circle cx="100" cy="220" r="12" fill="#6bb5ff"/>
  <text x="100" y="220" font-family="Arial" font-size="14" text-anchor="middle" fill="#fff" font-weight="bold">3</text>
  <rect x="120" y="200" width="640" height="40" rx="5" ry="5" fill="#6bb5ff" fill-opacity="0.2"/>
  <text x="140" y="225" font-family="Arial" font-size="14" fill="#333" font-weight="bold">Configure Token Approvals</text>
  <text x="470" y="225" font-family="Arial" font-size="14" fill="#333">Approve Reserves and Governance to use tokens</text>
  
  <!-- Step 4 -->
  <circle cx="100" cy="290" r="12" fill="#ff9e6b"/>
  <text x="100" y="290" font-family="Arial" font-size="14" text-anchor="middle" fill="#fff" font-weight="bold">4</text>
  <rect x="120" y="250" width="640" height="80" rx="5" ry="5" fill="#ff9e6b" fill-opacity="0.2"/>
  <text x="140" y="275" font-family="Arial" font-size="14" fill="#333" font-weight="bold">Deploy Reserves Contract</text>
  <text x="140" y="300" font-family="Arial" font-size="14" fill="#333">• addReserve(USDT.address, N2DR.address) - ID 0 for USDT, ID 1 for N2DR</text>
  <text x="140" y="325" font-family="Arial" font-size="14" fill="#333">• Deposit 200,000 USDT to ID 0 and 10,000,000 N2DR to ID 1</text>
  
  <!-- Step 5 -->
  <circle cx="100" cy="360" r="12" fill="#ffce73"/>
  <text x="100" y="360" font-family="Arial" font-size="14" text-anchor="middle" fill="#fff" font-weight="bold">5</text>
  <rect x="120" y="340" width="640" height="40" rx="5" ry="5" fill="#ffce73" fill-opacity="0.2"/>
  <text x="140" y="365" font-family="Arial" font-size="14" fill="#333" font-weight="bold">Deploy N2USD Contract</text>
  <text x="450" y="365" font-family="Arial" font-size="14" fill="#333">Mint 1,000,000 N2USD tokens (10^24 wei)</text>
  
  <!-- Step 6 -->
  <circle cx="100" cy="430" r="12" fill="#78dbbe"/>
  <text x="100" y="430" font-family="Arial" font-size="14" text-anchor="middle" fill="#fff" font-weight="bold">6</text>
  <rect x="120" y="390" width="640" height="80" rx="5" ry="5" fill="#78dbbe" fill-opacity="0.2"/>
  <text x="140" y="415" font-family="Arial" font-size="14" fill="#333" font-weight="bold">Deploy Governance Contract</text>
  <text x="140" y="440" font-family="Arial" font-size="14" fill="#333">• addCollateralToken(USDT.address), addCollateralToken(N2DR.address)</text>
  <text x="140" y="465" font-family="Arial" font-size="14" fill="#333">• setReserveContract(Reserves.address)</text>
  
  <!-- Step 7 -->
  <circle cx="100" cy="500" r="12" fill="#6bb5ff"/>
  <text x="100" y="500" font-family="Arial" font-size="14" text-anchor="middle" fill="#fff" font-weight="bold">7</text>
  <rect x="120" y="480" width="640" height="40" rx="5" ry="5" fill="#6bb5ff" fill-opacity="0.2"/>
  <text x="140" y="505" font-family="Arial" font-size="14" fill="#333" font-weight="bold">Configure Permissions</text>
  <text x="450" y="505" font-family="Arial" font-size="14" fill="#333">N2DR.grantRole(MANAGER_ROLE, Governance.address)</text>
  
  <!-- Step 8 -->
  <circle cx="100" cy="580" r="12" fill="#78dbbe"/>
  <text x="100" y="580" font-family="Arial" font-size="14" text-anchor="middle" fill="#fff" font-weight="bold">8</text>
  <rect x="120" y="540" width="640" height="80" rx="5" ry="5" fill="#78dbbe" fill-opacity="0.2"/>
  <text x="140" y="565" font-family="Arial" font-size="14" fill="#333" font-weight="bold">Configure Peg Mechanism</text>
  <text x="140" y="590" font-family="Arial" font-size="14" fill="#333">• setN2drTokenPrice(80,000,000) - Sets target price for stabilization</text>
  <text x="140" y="615" font-family="Arial" font-size="14" fill="#333">• Transfer 500,000,000 N2DR to Governance and call validatePeg()</text>
  
  <!-- Step 9 -->
  <circle cx="100" cy="640" r="12" fill="#78dbbe"/>
  <text x="100" y="640" font-family="Arial" font-size="14" text-anchor="middle" fill="#fff" font-weight="bold">9</text>
  <rect x="120" y="620" width="640" height="40" rx="5" ry="5" fill="#78dbbe" fill-opacity="0.2"/>
  <text x="140" y="645" font-family="Arial" font-size="14" fill="#333" font-weight="bold">Test Peg Mechanism</text>
  <text x="450" y="645" font-family="Arial" font-size="14" fill="#333">Change token price and validate peg again</text>
  
  <!-- Legend -->
  <rect x="580" y="40" width="20" height="10" fill="#6bb5ff"/>
  <text x="605" y="50" font-family="Arial" font-size="12" fill="#333">Token Contract</text>
  
  <rect x="580" y="60" width="20" height="10" fill="#ff9e6b"/>
  <text x="605" y="70" font-family="Arial" font-size="12" fill="#333">Reserves Operations</text>
  
  <rect x="650" y="40" width="20" height="10" fill="#78dbbe"/>
  <text x="675" y="50" font-family="Arial" font-size="12" fill="#333">Governance Operations</text>
  
  <rect x="650" y="60" width="20" height="10" fill="#ffce73"/>
  <text x="675" y="70" font-family="Arial" font-size="12" fill="#333">Stablecoin Operations</text>
</svg>
